<mxfile host="app.diagrams.net" modified="2023-08-21T16:53:24.640Z" agent="Mozilla/5.0 (Windows NT 10.0; Win64; x64) AppleWebKit/537.36 (KHTML, like Gecko) Chrome/115.0.0.0 Safari/537.36" etag="BxVTAaL4ICCDd05uQPJu" version="21.6.8" type="device">
  <diagram name="relationships" id="4eDTQBPnDPHos8S-4Det">
    <mxGraphModel dx="1050" dy="534" grid="1" gridSize="10" guides="1" tooltips="1" connect="1" arrows="1" fold="1" page="1" pageScale="1" pageWidth="850" pageHeight="1100" math="0" shadow="0">
      <root>
        <mxCell id="0" />
        <mxCell id="1" parent="0" />
        <mxCell id="fqTwlP3zrNiLl3ht1-tv-19" value="Customer" style="swimlane;fontStyle=1;align=center;verticalAlign=top;childLayout=stackLayout;horizontal=1;startSize=26;horizontalStack=0;resizeParent=1;resizeParentMax=0;resizeLast=0;collapsible=1;marginBottom=0;whiteSpace=wrap;html=1;" vertex="1" parent="1">
          <mxGeometry x="30" y="130" width="160" height="190" as="geometry" />
        </mxCell>
        <mxCell id="fqTwlP3zrNiLl3ht1-tv-20" value="- name: String" style="text;strokeColor=none;fillColor=none;align=left;verticalAlign=top;spacingLeft=4;spacingRight=4;overflow=hidden;rotatable=0;points=[[0,0.5],[1,0.5]];portConstraint=eastwest;whiteSpace=wrap;html=1;" vertex="1" parent="fqTwlP3zrNiLl3ht1-tv-19">
          <mxGeometry y="26" width="160" height="24" as="geometry" />
        </mxCell>
        <mxCell id="fqTwlP3zrNiLl3ht1-tv-23" value="- address: Address" style="text;strokeColor=none;fillColor=none;align=left;verticalAlign=top;spacingLeft=4;spacingRight=4;overflow=hidden;rotatable=0;points=[[0,0.5],[1,0.5]];portConstraint=eastwest;whiteSpace=wrap;html=1;" vertex="1" parent="fqTwlP3zrNiLl3ht1-tv-19">
          <mxGeometry y="50" width="160" height="24" as="geometry" />
        </mxCell>
        <mxCell id="fqTwlP3zrNiLl3ht1-tv-21" value="" style="line;strokeWidth=1;fillColor=none;align=left;verticalAlign=middle;spacingTop=-1;spacingLeft=3;spacingRight=3;rotatable=0;labelPosition=right;points=[];portConstraint=eastwest;strokeColor=inherit;" vertex="1" parent="fqTwlP3zrNiLl3ht1-tv-19">
          <mxGeometry y="74" width="160" height="30" as="geometry" />
        </mxCell>
        <mxCell id="fqTwlP3zrNiLl3ht1-tv-22" value="+ getName(): String" style="text;strokeColor=none;fillColor=none;align=left;verticalAlign=top;spacingLeft=4;spacingRight=4;overflow=hidden;rotatable=0;points=[[0,0.5],[1,0.5]];portConstraint=eastwest;whiteSpace=wrap;html=1;" vertex="1" parent="fqTwlP3zrNiLl3ht1-tv-19">
          <mxGeometry y="104" width="160" height="40" as="geometry" />
        </mxCell>
        <mxCell id="fqTwlP3zrNiLl3ht1-tv-24" value="+ getAddress(): Address" style="text;strokeColor=none;fillColor=none;align=left;verticalAlign=top;spacingLeft=4;spacingRight=4;overflow=hidden;rotatable=0;points=[[0,0.5],[1,0.5]];portConstraint=eastwest;whiteSpace=wrap;html=1;" vertex="1" parent="fqTwlP3zrNiLl3ht1-tv-19">
          <mxGeometry y="144" width="160" height="46" as="geometry" />
        </mxCell>
        <mxCell id="fqTwlP3zrNiLl3ht1-tv-25" value="Order" style="swimlane;fontStyle=1;align=center;verticalAlign=top;childLayout=stackLayout;horizontal=1;startSize=26;horizontalStack=0;resizeParent=1;resizeParentMax=0;resizeLast=0;collapsible=1;marginBottom=0;whiteSpace=wrap;html=1;" vertex="1" parent="1">
          <mxGeometry x="330" y="190" width="160" height="130" as="geometry" />
        </mxCell>
        <mxCell id="fqTwlP3zrNiLl3ht1-tv-26" value="+ orderDate: Date" style="text;strokeColor=none;fillColor=none;align=left;verticalAlign=top;spacingLeft=4;spacingRight=4;overflow=hidden;rotatable=0;points=[[0,0.5],[1,0.5]];portConstraint=eastwest;whiteSpace=wrap;html=1;" vertex="1" parent="fqTwlP3zrNiLl3ht1-tv-25">
          <mxGeometry y="26" width="160" height="26" as="geometry" />
        </mxCell>
        <mxCell id="fqTwlP3zrNiLl3ht1-tv-29" value="+ status: String" style="text;strokeColor=none;fillColor=none;align=left;verticalAlign=top;spacingLeft=4;spacingRight=4;overflow=hidden;rotatable=0;points=[[0,0.5],[1,0.5]];portConstraint=eastwest;whiteSpace=wrap;html=1;" vertex="1" parent="fqTwlP3zrNiLl3ht1-tv-25">
          <mxGeometry y="52" width="160" height="24" as="geometry" />
        </mxCell>
        <mxCell id="fqTwlP3zrNiLl3ht1-tv-27" value="" style="line;strokeWidth=1;fillColor=none;align=left;verticalAlign=middle;spacingTop=-1;spacingLeft=3;spacingRight=3;rotatable=0;labelPosition=right;points=[];portConstraint=eastwest;strokeColor=inherit;" vertex="1" parent="fqTwlP3zrNiLl3ht1-tv-25">
          <mxGeometry y="76" width="160" height="28" as="geometry" />
        </mxCell>
        <mxCell id="fqTwlP3zrNiLl3ht1-tv-28" value="+ totalAmount(): Decimal" style="text;strokeColor=none;fillColor=none;align=left;verticalAlign=top;spacingLeft=4;spacingRight=4;overflow=hidden;rotatable=0;points=[[0,0.5],[1,0.5]];portConstraint=eastwest;whiteSpace=wrap;html=1;" vertex="1" parent="fqTwlP3zrNiLl3ht1-tv-25">
          <mxGeometry y="104" width="160" height="26" as="geometry" />
        </mxCell>
        <mxCell id="fqTwlP3zrNiLl3ht1-tv-30" value="SalaryApp" style="swimlane;fontStyle=1;align=center;verticalAlign=middle;childLayout=stackLayout;horizontal=1;startSize=29;horizontalStack=0;resizeParent=1;resizeParentMax=0;resizeLast=0;collapsible=0;marginBottom=0;html=1;" vertex="1" parent="1">
          <mxGeometry x="120" y="550" width="143" height="85" as="geometry" />
        </mxCell>
        <mxCell id="fqTwlP3zrNiLl3ht1-tv-31" value="&amp;lt;&amp;lt;stereotype1&amp;gt;&amp;gt;" style="text;html=1;strokeColor=none;fillColor=none;align=center;verticalAlign=middle;spacingLeft=4;spacingRight=4;overflow=hidden;rotatable=0;points=[[0,0.5],[1,0.5]];portConstraint=eastwest;" vertex="1" parent="fqTwlP3zrNiLl3ht1-tv-30">
          <mxGeometry y="29" width="143" height="25" as="geometry" />
        </mxCell>
        <mxCell id="fqTwlP3zrNiLl3ht1-tv-32" value="printSalary()" style="text;html=1;strokeColor=none;fillColor=none;align=left;verticalAlign=middle;spacingLeft=4;spacingRight=4;overflow=hidden;rotatable=0;points=[[0,0.5],[1,0.5]];portConstraint=eastwest;" vertex="1" parent="fqTwlP3zrNiLl3ht1-tv-30">
          <mxGeometry y="54" width="143" height="31" as="geometry" />
        </mxCell>
        <mxCell id="fqTwlP3zrNiLl3ht1-tv-33" value="Employee" style="swimlane;fontStyle=1;align=center;verticalAlign=middle;childLayout=stackLayout;horizontal=1;startSize=29;horizontalStack=0;resizeParent=1;resizeParentMax=0;resizeLast=0;collapsible=0;marginBottom=0;html=1;" vertex="1" parent="1">
          <mxGeometry x="435" y="553" width="140" height="79" as="geometry" />
        </mxCell>
        <mxCell id="fqTwlP3zrNiLl3ht1-tv-34" value="&amp;lt;&amp;lt;stereotype1&amp;gt;&amp;gt;" style="text;html=1;strokeColor=none;fillColor=none;align=center;verticalAlign=middle;spacingLeft=4;spacingRight=4;overflow=hidden;rotatable=0;points=[[0,0.5],[1,0.5]];portConstraint=eastwest;" vertex="1" parent="fqTwlP3zrNiLl3ht1-tv-33">
          <mxGeometry y="29" width="140" height="25" as="geometry" />
        </mxCell>
        <mxCell id="fqTwlP3zrNiLl3ht1-tv-35" value="getType()" style="text;html=1;strokeColor=none;fillColor=none;align=left;verticalAlign=middle;spacingLeft=4;spacingRight=4;overflow=hidden;rotatable=0;points=[[0,0.5],[1,0.5]];portConstraint=eastwest;" vertex="1" parent="fqTwlP3zrNiLl3ht1-tv-33">
          <mxGeometry y="54" width="140" height="25" as="geometry" />
        </mxCell>
        <mxCell id="fqTwlP3zrNiLl3ht1-tv-36" value="" style="endArrow=open;startArrow=none;endFill=0;startFill=0;endSize=8;html=1;verticalAlign=bottom;labelBackgroundColor=none;strokeWidth=1;rounded=0;entryX=-0.014;entryY=0.04;entryDx=0;entryDy=0;entryPerimeter=0;" edge="1" parent="1" target="fqTwlP3zrNiLl3ht1-tv-34">
          <mxGeometry width="160" relative="1" as="geometry">
            <mxPoint x="265" y="583" as="sourcePoint" />
            <mxPoint x="419" y="582" as="targetPoint" />
            <Array as="points">
              <mxPoint x="323" y="583" />
            </Array>
          </mxGeometry>
        </mxCell>
        <mxCell id="fqTwlP3zrNiLl3ht1-tv-37" value="Arrows never ever show the flow of data. It shows : Supplier / Client relationship" style="text;html=1;align=center;verticalAlign=middle;resizable=0;points=[];autosize=1;strokeColor=none;fillColor=none;fontStyle=1" vertex="1" parent="1">
          <mxGeometry x="117" y="470" width="476" height="26" as="geometry" />
        </mxCell>
        <mxCell id="fqTwlP3zrNiLl3ht1-tv-38" value="Field (&lt;b&gt;Association&lt;/b&gt; [Structural])" style="text;html=1;align=center;verticalAlign=middle;resizable=0;points=[];autosize=1;strokeColor=none;fillColor=none;" vertex="1" parent="1">
          <mxGeometry x="256" y="550" width="185" height="26" as="geometry" />
        </mxCell>
        <mxCell id="fqTwlP3zrNiLl3ht1-tv-39" value="Client" style="text;html=1;align=center;verticalAlign=middle;resizable=0;points=[];autosize=1;strokeColor=none;fillColor=none;fontStyle=1" vertex="1" parent="1">
          <mxGeometry x="114" y="517" width="51" height="26" as="geometry" />
        </mxCell>
        <mxCell id="fqTwlP3zrNiLl3ht1-tv-40" value="Supplier" style="text;html=1;align=center;verticalAlign=middle;resizable=0;points=[];autosize=1;strokeColor=none;fillColor=none;fontStyle=1" vertex="1" parent="1">
          <mxGeometry x="433" y="521" width="66" height="26" as="geometry" />
        </mxCell>
        <mxCell id="fqTwlP3zrNiLl3ht1-tv-41" value="SalaryApp" style="swimlane;fontStyle=1;align=center;verticalAlign=middle;childLayout=stackLayout;horizontal=1;startSize=29;horizontalStack=0;resizeParent=1;resizeParentMax=0;resizeLast=0;collapsible=0;marginBottom=0;html=1;" vertex="1" parent="1">
          <mxGeometry x="123" y="740" width="143" height="85" as="geometry" />
        </mxCell>
        <mxCell id="fqTwlP3zrNiLl3ht1-tv-42" value="&amp;lt;&amp;lt;stereotype1&amp;gt;&amp;gt;" style="text;html=1;strokeColor=none;fillColor=none;align=center;verticalAlign=middle;spacingLeft=4;spacingRight=4;overflow=hidden;rotatable=0;points=[[0,0.5],[1,0.5]];portConstraint=eastwest;" vertex="1" parent="fqTwlP3zrNiLl3ht1-tv-41">
          <mxGeometry y="29" width="143" height="25" as="geometry" />
        </mxCell>
        <mxCell id="fqTwlP3zrNiLl3ht1-tv-43" value="printSalary()" style="text;html=1;strokeColor=none;fillColor=none;align=left;verticalAlign=middle;spacingLeft=4;spacingRight=4;overflow=hidden;rotatable=0;points=[[0,0.5],[1,0.5]];portConstraint=eastwest;" vertex="1" parent="fqTwlP3zrNiLl3ht1-tv-41">
          <mxGeometry y="54" width="143" height="31" as="geometry" />
        </mxCell>
        <mxCell id="fqTwlP3zrNiLl3ht1-tv-44" value="Employee" style="swimlane;fontStyle=1;align=center;verticalAlign=middle;childLayout=stackLayout;horizontal=1;startSize=29;horizontalStack=0;resizeParent=1;resizeParentMax=0;resizeLast=0;collapsible=0;marginBottom=0;html=1;" vertex="1" parent="1">
          <mxGeometry x="441" y="746" width="140" height="79" as="geometry" />
        </mxCell>
        <mxCell id="fqTwlP3zrNiLl3ht1-tv-45" value="&amp;lt;&amp;lt;stereotype1&amp;gt;&amp;gt;" style="text;html=1;strokeColor=none;fillColor=none;align=center;verticalAlign=middle;spacingLeft=4;spacingRight=4;overflow=hidden;rotatable=0;points=[[0,0.5],[1,0.5]];portConstraint=eastwest;" vertex="1" parent="fqTwlP3zrNiLl3ht1-tv-44">
          <mxGeometry y="29" width="140" height="25" as="geometry" />
        </mxCell>
        <mxCell id="fqTwlP3zrNiLl3ht1-tv-46" value="getType()" style="text;html=1;strokeColor=none;fillColor=none;align=left;verticalAlign=middle;spacingLeft=4;spacingRight=4;overflow=hidden;rotatable=0;points=[[0,0.5],[1,0.5]];portConstraint=eastwest;" vertex="1" parent="fqTwlP3zrNiLl3ht1-tv-44">
          <mxGeometry y="54" width="140" height="25" as="geometry" />
        </mxCell>
        <mxCell id="fqTwlP3zrNiLl3ht1-tv-47" value="Parameter / Local / Global&lt;br&gt;&amp;nbsp;(&lt;b&gt;Dependency&lt;/b&gt;)" style="text;html=1;align=center;verticalAlign=middle;resizable=0;points=[];autosize=1;strokeColor=none;fillColor=none;" vertex="1" parent="1">
          <mxGeometry x="269" y="727" width="157" height="41" as="geometry" />
        </mxCell>
        <mxCell id="fqTwlP3zrNiLl3ht1-tv-48" value="Client" style="text;html=1;align=center;verticalAlign=middle;resizable=0;points=[];autosize=1;strokeColor=none;fillColor=none;fontStyle=1" vertex="1" parent="1">
          <mxGeometry x="117" y="707" width="51" height="26" as="geometry" />
        </mxCell>
        <mxCell id="fqTwlP3zrNiLl3ht1-tv-49" value="Supplier" style="text;html=1;align=center;verticalAlign=middle;resizable=0;points=[];autosize=1;strokeColor=none;fillColor=none;fontStyle=1" vertex="1" parent="1">
          <mxGeometry x="490" y="707" width="66" height="26" as="geometry" />
        </mxCell>
        <mxCell id="fqTwlP3zrNiLl3ht1-tv-50" value="Use" style="endArrow=open;endSize=12;dashed=1;html=1;rounded=0;entryX=0;entryY=0.5;entryDx=0;entryDy=0;" edge="1" parent="1" target="fqTwlP3zrNiLl3ht1-tv-45">
          <mxGeometry width="160" relative="1" as="geometry">
            <mxPoint x="266" y="789" as="sourcePoint" />
            <mxPoint x="426" y="789" as="targetPoint" />
          </mxGeometry>
        </mxCell>
        <mxCell id="fqTwlP3zrNiLl3ht1-tv-51" value="SalariesEmployee" style="swimlane;fontStyle=1;align=center;verticalAlign=middle;childLayout=stackLayout;horizontal=1;startSize=29;horizontalStack=0;resizeParent=1;resizeParentMax=0;resizeLast=0;collapsible=0;marginBottom=0;html=1;" vertex="1" parent="1">
          <mxGeometry x="343" y="936" width="140" height="79" as="geometry" />
        </mxCell>
        <mxCell id="fqTwlP3zrNiLl3ht1-tv-52" value="&amp;lt;&amp;lt;stereotype1&amp;gt;&amp;gt;" style="text;html=1;strokeColor=none;fillColor=none;align=center;verticalAlign=middle;spacingLeft=4;spacingRight=4;overflow=hidden;rotatable=0;points=[[0,0.5],[1,0.5]];portConstraint=eastwest;" vertex="1" parent="fqTwlP3zrNiLl3ht1-tv-51">
          <mxGeometry y="29" width="140" height="25" as="geometry" />
        </mxCell>
        <mxCell id="fqTwlP3zrNiLl3ht1-tv-53" value="getType()" style="text;html=1;strokeColor=none;fillColor=none;align=left;verticalAlign=middle;spacingLeft=4;spacingRight=4;overflow=hidden;rotatable=0;points=[[0,0.5],[1,0.5]];portConstraint=eastwest;" vertex="1" parent="fqTwlP3zrNiLl3ht1-tv-51">
          <mxGeometry y="54" width="140" height="25" as="geometry" />
        </mxCell>
        <mxCell id="fqTwlP3zrNiLl3ht1-tv-54" value="ContractEmployee" style="swimlane;fontStyle=1;align=center;verticalAlign=middle;childLayout=stackLayout;horizontal=1;startSize=29;horizontalStack=0;resizeParent=1;resizeParentMax=0;resizeLast=0;collapsible=0;marginBottom=0;html=1;" vertex="1" parent="1">
          <mxGeometry x="547" y="934" width="140" height="79" as="geometry" />
        </mxCell>
        <mxCell id="fqTwlP3zrNiLl3ht1-tv-55" value="&amp;lt;&amp;lt;stereotype1&amp;gt;&amp;gt;" style="text;html=1;strokeColor=none;fillColor=none;align=center;verticalAlign=middle;spacingLeft=4;spacingRight=4;overflow=hidden;rotatable=0;points=[[0,0.5],[1,0.5]];portConstraint=eastwest;" vertex="1" parent="fqTwlP3zrNiLl3ht1-tv-54">
          <mxGeometry y="29" width="140" height="25" as="geometry" />
        </mxCell>
        <mxCell id="fqTwlP3zrNiLl3ht1-tv-56" value="getType()" style="text;html=1;strokeColor=none;fillColor=none;align=left;verticalAlign=middle;spacingLeft=4;spacingRight=4;overflow=hidden;rotatable=0;points=[[0,0.5],[1,0.5]];portConstraint=eastwest;" vertex="1" parent="fqTwlP3zrNiLl3ht1-tv-54">
          <mxGeometry y="54" width="140" height="25" as="geometry" />
        </mxCell>
        <mxCell id="fqTwlP3zrNiLl3ht1-tv-57" value="" style="edgeStyle=none;html=1;endSize=12;endArrow=block;endFill=0;rounded=0;exitX=0.564;exitY=-0.006;exitDx=0;exitDy=0;exitPerimeter=0;entryX=0.443;entryY=1.1;entryDx=0;entryDy=0;entryPerimeter=0;" edge="1" parent="1" source="fqTwlP3zrNiLl3ht1-tv-51" target="fqTwlP3zrNiLl3ht1-tv-46">
          <mxGeometry width="160" relative="1" as="geometry">
            <mxPoint x="392" y="878" as="sourcePoint" />
            <mxPoint x="552" y="878" as="targetPoint" />
          </mxGeometry>
        </mxCell>
        <mxCell id="fqTwlP3zrNiLl3ht1-tv-58" value="" style="edgeStyle=none;html=1;endSize=12;endArrow=block;endFill=0;rounded=0;exitX=0.5;exitY=0;exitDx=0;exitDy=0;" edge="1" parent="1" source="fqTwlP3zrNiLl3ht1-tv-54">
          <mxGeometry width="160" relative="1" as="geometry">
            <mxPoint x="547.47" y="931.0260000000001" as="sourcePoint" />
            <mxPoint x="523" y="826" as="targetPoint" />
          </mxGeometry>
        </mxCell>
        <mxCell id="fqTwlP3zrNiLl3ht1-tv-59" value="Generalization/Inheritance" style="text;html=1;align=center;verticalAlign=middle;resizable=0;points=[];autosize=1;strokeColor=none;fillColor=none;fontStyle=1" vertex="1" parent="1">
          <mxGeometry x="575" y="868" width="170" height="30" as="geometry" />
        </mxCell>
        <mxCell id="fqTwlP3zrNiLl3ht1-tv-61" value="TaxPayer" style="swimlane;fontStyle=1;align=center;verticalAlign=middle;childLayout=stackLayout;horizontal=1;startSize=29;horizontalStack=0;resizeParent=1;resizeParentMax=0;resizeLast=0;collapsible=0;marginBottom=0;html=1;" vertex="1" parent="1">
          <mxGeometry x="30" y="889" width="140" height="54" as="geometry" />
        </mxCell>
        <mxCell id="fqTwlP3zrNiLl3ht1-tv-62" value="&amp;lt;&amp;lt;interface&amp;gt;&amp;gt;" style="text;html=1;strokeColor=none;fillColor=none;align=center;verticalAlign=middle;spacingLeft=4;spacingRight=4;overflow=hidden;rotatable=0;points=[[0,0.5],[1,0.5]];portConstraint=eastwest;" vertex="1" parent="fqTwlP3zrNiLl3ht1-tv-61">
          <mxGeometry y="29" width="140" height="25" as="geometry" />
        </mxCell>
        <mxCell id="fqTwlP3zrNiLl3ht1-tv-63" value="" style="edgeStyle=elbowEdgeStyle;html=1;endArrow=block;elbow=vertical;endFill=0;dashed=1;rounded=0;exitX=0.016;exitY=0.2;exitDx=0;exitDy=0;exitPerimeter=0;" edge="1" parent="1" source="fqTwlP3zrNiLl3ht1-tv-52">
          <mxGeometry width="100" height="75" relative="1" as="geometry">
            <mxPoint x="347" y="980" as="sourcePoint" />
            <mxPoint x="110" y="947" as="targetPoint" />
          </mxGeometry>
        </mxCell>
        <mxCell id="fqTwlP3zrNiLl3ht1-tv-64" value="Realization" style="text;html=1;align=center;verticalAlign=middle;resizable=0;points=[];autosize=1;strokeColor=none;fillColor=none;fontStyle=1" vertex="1" parent="1">
          <mxGeometry x="200.5" y="962.5" width="81" height="26" as="geometry" />
        </mxCell>
        <mxCell id="fqTwlP3zrNiLl3ht1-tv-70" value="" style="endArrow=none;html=1;edgeStyle=orthogonalEdgeStyle;rounded=0;entryX=0;entryY=0.5;entryDx=0;entryDy=0;exitX=1;exitY=0.5;exitDx=0;exitDy=0;" edge="1" parent="1" source="fqTwlP3zrNiLl3ht1-tv-22" target="fqTwlP3zrNiLl3ht1-tv-29">
          <mxGeometry relative="1" as="geometry">
            <mxPoint x="180" y="250" as="sourcePoint" />
            <mxPoint x="340" y="250" as="targetPoint" />
          </mxGeometry>
        </mxCell>
        <mxCell id="fqTwlP3zrNiLl3ht1-tv-71" value="parent" style="edgeLabel;resizable=0;html=1;align=left;verticalAlign=bottom;" connectable="0" vertex="1" parent="fqTwlP3zrNiLl3ht1-tv-70">
          <mxGeometry x="-1" relative="1" as="geometry" />
        </mxCell>
        <mxCell id="fqTwlP3zrNiLl3ht1-tv-72" value="child" style="edgeLabel;resizable=0;html=1;align=right;verticalAlign=bottom;" connectable="0" vertex="1" parent="fqTwlP3zrNiLl3ht1-tv-70">
          <mxGeometry x="1" relative="1" as="geometry" />
        </mxCell>
      </root>
    </mxGraphModel>
  </diagram>
</mxfile>
